<svg width="89" height="13" viewBox="0 0 89 13" fill="none" xmlns="http://www.w3.org/2000/svg">
<path d="M0.860795 10V1.27273H4.2017C4.83239 1.27273 5.35653 1.37216 5.77415 1.57102C6.1946 1.76705 6.50852 2.03551 6.71591 2.37642C6.92614 2.71733 7.03125 3.10369 7.03125 3.53551C7.03125 3.89062 6.96307 4.1946 6.8267 4.44744C6.69034 4.69744 6.5071 4.90057 6.27699 5.05682C6.04688 5.21307 5.78977 5.32528 5.50568 5.39347V5.47869C5.81534 5.49574 6.11222 5.59091 6.39631 5.7642C6.68324 5.93466 6.91761 6.17614 7.09943 6.48864C7.28125 6.80114 7.37216 7.17898 7.37216 7.62216C7.37216 8.07386 7.26278 8.48011 7.04403 8.84091C6.82528 9.19886 6.49574 9.48153 6.0554 9.68892C5.61506 9.89631 5.06108 10 4.39347 10H0.860795ZM2.44176 8.67898H4.14205C4.71591 8.67898 5.12926 8.5696 5.3821 8.35085C5.63778 8.12926 5.76562 7.84517 5.76562 7.49858C5.76562 7.24006 5.7017 7.0071 5.57386 6.79972C5.44602 6.58949 5.2642 6.42472 5.02841 6.3054C4.79261 6.18324 4.51136 6.12216 4.18466 6.12216H2.44176V8.67898ZM2.44176 4.98438H4.00568C4.27841 4.98438 4.52415 4.93466 4.7429 4.83523C4.96165 4.73295 5.13352 4.58949 5.25852 4.40483C5.38636 4.21733 5.45028 3.99574 5.45028 3.74006C5.45028 3.40199 5.33097 3.12358 5.09233 2.90483C4.85653 2.68608 4.50568 2.5767 4.03977 2.5767H2.44176V4.98438ZM12.8032 7.24716V3.45455H14.3458V10H12.8501V8.83665H12.7819C12.6342 9.20312 12.3913 9.50284 12.0532 9.7358C11.718 9.96875 11.3046 10.0852 10.8132 10.0852C10.3842 10.0852 10.0049 9.99006 9.67537 9.79972C9.34866 9.60653 9.09298 9.3267 8.90832 8.96023C8.72366 8.59091 8.63133 8.14489 8.63133 7.62216V3.45455H10.1739V7.38352C10.1739 7.7983 10.2876 8.12784 10.5149 8.37216C10.7421 8.61648 11.0404 8.73864 11.4097 8.73864C11.637 8.73864 11.8572 8.68324 12.0703 8.57244C12.2833 8.46165 12.458 8.29688 12.5944 8.07812C12.7336 7.85653 12.8032 7.57955 12.8032 7.24716ZM15.8841 10V3.45455H17.4267V10H15.8841ZM16.6597 2.52557C16.4154 2.52557 16.2051 2.4446 16.029 2.28267C15.8529 2.1179 15.7648 1.92045 15.7648 1.69034C15.7648 1.45739 15.8529 1.25994 16.029 1.09801C16.2051 0.933238 16.4154 0.850852 16.6597 0.850852C16.9068 0.850852 17.1171 0.933238 17.2904 1.09801C17.4665 1.25994 17.5546 1.45739 17.5546 1.69034C17.5546 1.92045 17.4665 2.1179 17.2904 2.28267C17.1171 2.4446 16.9068 2.52557 16.6597 2.52557ZM20.5076 1.27273V10H18.965V1.27273H20.5076ZM24.4749 10.1151C23.9607 10.1151 23.5005 9.98295 23.0942 9.71875C22.688 9.45455 22.3669 9.07102 22.1312 8.56818C21.8954 8.06534 21.7775 7.45455 21.7775 6.7358C21.7775 6.00852 21.8968 5.39489 22.1354 4.89489C22.3769 4.39205 22.7022 4.01278 23.1113 3.7571C23.5204 3.49858 23.9763 3.36932 24.4792 3.36932C24.8627 3.36932 25.178 3.43466 25.4252 3.56534C25.6723 3.69318 25.8684 3.84801 26.0133 4.02983C26.1581 4.20881 26.2704 4.37784 26.3499 4.53693H26.4138V1.27273H27.9607V10H26.4437V8.96875H26.3499C26.2704 9.12784 26.1553 9.29687 26.0047 9.47585C25.8542 9.65199 25.6553 9.80256 25.4081 9.92756C25.161 10.0526 24.8499 10.1151 24.4749 10.1151ZM24.9053 8.84943C25.232 8.84943 25.5104 8.76136 25.7405 8.58523C25.9706 8.40625 26.1454 8.15767 26.2647 7.83949C26.384 7.52131 26.4437 7.15057 26.4437 6.72727C26.4437 6.30398 26.384 5.93608 26.2647 5.62358C26.1482 5.31108 25.9749 5.06818 25.7448 4.89489C25.5175 4.72159 25.2377 4.63494 24.9053 4.63494C24.5616 4.63494 24.2746 4.72443 24.0445 4.90341C23.8144 5.08239 23.6411 5.32955 23.5246 5.64489C23.4081 5.96023 23.3499 6.32102 23.3499 6.72727C23.3499 7.13636 23.4081 7.50142 23.5246 7.82244C23.6439 8.14062 23.8187 8.39205 24.0488 8.5767C24.2817 8.75852 24.5672 8.84943 24.9053 8.84943ZM33.8359 10L31.9865 3.45455H33.5589L34.7095 8.05682H34.7692L35.9453 3.45455H37.5007L38.6768 8.03125H38.7408L39.8743 3.45455H41.451L39.5973 10H37.9908L36.7635 5.5767H36.674L35.4467 10H33.8359ZM42.4801 10V3.45455H44.0227V10H42.4801ZM43.2556 2.52557C43.0113 2.52557 42.8011 2.4446 42.6249 2.28267C42.4488 2.1179 42.3607 1.92045 42.3607 1.69034C42.3607 1.45739 42.4488 1.25994 42.6249 1.09801C42.8011 0.933238 43.0113 0.850852 43.2556 0.850852C43.5028 0.850852 43.713 0.933238 43.8863 1.09801C44.0624 1.25994 44.1505 1.45739 44.1505 1.69034C44.1505 1.92045 44.0624 2.1179 43.8863 2.28267C43.713 2.4446 43.5028 2.52557 43.2556 2.52557ZM48.8294 3.45455V4.64773H45.0666V3.45455H48.8294ZM45.9956 1.88636H47.5382V8.03125C47.5382 8.23864 47.5695 8.39773 47.632 8.50852C47.6973 8.61648 47.7825 8.69034 47.8877 8.73011C47.9928 8.76989 48.1093 8.78977 48.2371 8.78977C48.3337 8.78977 48.4218 8.78267 48.5013 8.76847C48.5837 8.75426 48.6462 8.74148 48.6888 8.73011L48.9487 9.93608C48.8664 9.96449 48.7485 9.99574 48.595 10.0298C48.4445 10.0639 48.2598 10.0838 48.0411 10.0895C47.6547 10.1009 47.3067 10.0426 46.997 9.91477C46.6874 9.78409 46.4416 9.58239 46.2598 9.30966C46.0808 9.03693 45.9928 8.69602 45.9956 8.28693V1.88636ZM51.7548 6.16477V10H50.2122V1.27273H51.7207V4.56676H51.7974C51.9508 4.19744 52.188 3.90625 52.5091 3.69318C52.8329 3.47727 53.2448 3.36932 53.7448 3.36932C54.1994 3.36932 54.5957 3.46449 54.9338 3.65483C55.2718 3.84517 55.5332 4.12358 55.7179 4.49006C55.9054 4.85653 55.9991 5.30398 55.9991 5.83239V10H54.4565V6.07102C54.4565 5.63068 54.3429 5.28835 54.1156 5.04403C53.8912 4.79687 53.5758 4.6733 53.1696 4.6733C52.8968 4.6733 52.6525 4.73295 52.4366 4.85227C52.2235 4.96875 52.0559 5.13778 51.9338 5.35938C51.8144 5.58097 51.7548 5.84943 51.7548 6.16477ZM75.5744 10V1.27273H77.117V4.53693H77.1809C77.2605 4.37784 77.3727 4.20881 77.5176 4.02983C77.6625 3.84801 77.8585 3.69318 78.1056 3.56534C78.3528 3.43466 78.6681 3.36932 79.0517 3.36932C79.5573 3.36932 80.0133 3.49858 80.4196 3.7571C80.8286 4.01278 81.1525 4.39205 81.3911 4.89489C81.6326 5.39489 81.7534 6.00852 81.7534 6.7358C81.7534 7.45455 81.6355 8.06534 81.3997 8.56818C81.1639 9.07102 80.8429 9.45455 80.4366 9.71875C80.0304 9.98295 79.5701 10.1151 79.0559 10.1151C78.6809 10.1151 78.3698 10.0526 78.1227 9.92756C77.8755 9.80256 77.6767 9.65199 77.5261 9.47585C77.3784 9.29687 77.2633 9.12784 77.1809 8.96875H77.0914V10H75.5744ZM77.0872 6.72727C77.0872 7.15057 77.1468 7.52131 77.2661 7.83949C77.3883 8.15767 77.563 8.40625 77.7903 8.58523C78.0204 8.76136 78.2988 8.84943 78.6255 8.84943C78.9664 8.84943 79.2519 8.75852 79.4821 8.5767C79.7122 8.39205 79.8855 8.14062 80.0019 7.82244C80.1213 7.50142 80.1809 7.13636 80.1809 6.72727C80.1809 6.32102 80.1227 5.96023 80.0062 5.64489C79.8897 5.32955 79.7164 5.08239 79.4863 4.90341C79.2562 4.72443 78.9693 4.63494 78.6255 4.63494C78.296 4.63494 78.0161 4.72159 77.786 4.89489C77.5559 5.06818 77.3812 5.31108 77.2619 5.62358C77.1454 5.93608 77.0872 6.30398 77.0872 6.72727ZM83.753 12.4545C83.5427 12.4545 83.3481 12.4375 83.1691 12.4034C82.993 12.3722 82.8524 12.3352 82.7473 12.2926L83.1052 11.0909C83.3297 11.1563 83.5299 11.1875 83.7061 11.1847C83.8822 11.1818 84.037 11.1264 84.1706 11.0185C84.3069 10.9134 84.422 10.7372 84.5157 10.4901L84.6478 10.1364L82.2743 3.45455H83.9106L85.4191 8.39773H85.4873L87.0001 3.45455H88.6407L86.02 10.7926C85.8978 11.1392 85.7359 11.4361 85.5342 11.6832C85.3325 11.9332 85.0853 12.1236 84.7927 12.2543C84.503 12.3878 84.1564 12.4545 83.753 12.4545Z" fill="#9FA3A6"/>
<path d="M65.7959 10.1364L61.4152 5.75568C61.0658 5.40625 60.8328 5 60.7163 4.53693C60.6027 4.07386 60.6041 3.61364 60.7206 3.15625C60.8371 2.69602 61.0686 2.29545 61.4152 1.95455C61.7703 1.60511 62.1751 1.37358 62.6297 1.25994C63.0871 1.14347 63.543 1.14347 63.9976 1.25994C64.455 1.37642 64.8612 1.60795 65.2163 1.95455L65.7959 2.51705L66.3754 1.95455C66.7334 1.60795 67.1396 1.37642 67.5942 1.25994C68.0487 1.14347 68.5033 1.14347 68.9578 1.25994C69.4152 1.37358 69.8214 1.60511 70.1765 1.95455C70.5231 2.29545 70.7547 2.69602 70.8711 3.15625C70.9876 3.61364 70.9876 4.07386 70.8711 4.53693C70.7575 5 70.526 5.40625 70.1765 5.75568L65.7959 10.1364Z" fill="#E63737"/>
</svg>
