<svg width="18" height="16" viewBox="0 0 18 16" fill="none" xmlns="http://www.w3.org/2000/svg">
<path fill-rule="evenodd" clip-rule="evenodd" d="M7.83843 15.3H10.4345C14.4869 15.3 17.7162 12.085 17.8429 8.11354V8.0505C17.7795 4.01596 14.4869 0.737903 10.4345 0.800943H7.52183C3.65936 0.927022 0.620039 4.20508 0.746677 8.11354C0.746677 12.022 3.91264 15.237 7.83843 15.3ZM2.01306 8.05047C2.01306 4.77241 4.73579 2.06171 8.02839 2.06171C11.321 2.06171 14.0437 4.77241 14.0437 8.05047C14.0437 11.3285 11.321 14.0392 8.02839 14.0392C4.73579 14.0392 2.01306 11.3285 2.01306 8.05047ZM8.97818 12.085V4.07898C11.1943 4.64634 12.5874 6.85272 12.0175 9.05911C11.6376 10.5721 10.4978 11.7068 8.97818 12.085ZM4.1026 7.04184C3.53272 9.24823 4.86243 11.5177 7.0786 12.085V4.07898C5.62226 4.45722 4.48251 5.59193 4.1026 7.04184Z" fill="#0079BE"/>
</svg>
