<svg width="26" height="11" viewBox="0 0 26 11" fill="none" xmlns="http://www.w3.org/2000/svg">
<path fill-rule="evenodd" clip-rule="evenodd" d="M12.0578 8.52794V5.59329H13.5725C14.1931 5.59329 14.717 5.38533 15.144 4.97517L15.2465 4.87119C16.0266 4.02199 15.9754 2.69908 15.144 1.91343C14.7284 1.49749 14.159 1.27219 13.5725 1.28375H11.1411V8.52794H12.0578ZM12.0579 4.7036V2.17333H13.5956C13.9259 2.17333 14.2391 2.30042 14.4726 2.5315C14.9681 3.01675 14.9795 3.82552 14.5011 4.3281C14.2676 4.57651 13.9373 4.71515 13.5956 4.7036H12.0579ZM19.5228 3.95842C19.1299 3.59447 18.5947 3.40961 17.9171 3.40961C17.0459 3.40961 16.3911 3.73312 15.9583 4.37435L16.7669 4.88849C17.063 4.44945 17.4673 4.22993 17.9797 4.22993C18.3043 4.22993 18.6175 4.35124 18.8623 4.57076C19.1015 4.77873 19.2381 5.07913 19.2381 5.39686V5.6106C18.8851 5.41419 18.4409 5.3102 17.8943 5.3102C17.2566 5.3102 16.7441 5.4604 16.3626 5.76658C15.9811 6.07275 15.7875 6.47713 15.7875 6.99127C15.7761 7.4592 15.9754 7.90402 16.3284 8.20442C16.6872 8.52792 17.1427 8.68968 17.6779 8.68968C18.31 8.68968 18.8111 8.40661 19.1926 7.84048H19.2324V8.52792H20.1093V5.47196C20.1093 4.83072 19.9157 4.32236 19.5228 3.95842ZM17.0347 7.61519C16.8467 7.47655 16.7328 7.25125 16.7328 7.00862C16.7328 6.73711 16.8581 6.51181 17.103 6.33273C17.3536 6.15365 17.6668 6.06122 18.037 6.06122C18.5495 6.05544 18.9482 6.17098 19.2329 6.40205C19.2329 6.79488 19.0792 7.13571 18.7773 7.42456C18.504 7.70185 18.1338 7.85782 17.7465 7.85782C17.4903 7.8636 17.2397 7.77695 17.0347 7.61519ZM22.0795 10.7058L25.1429 3.57136H24.1464L22.7286 7.12991H22.7115L21.2595 3.57136H20.2631L22.2731 8.21019L21.1343 10.7058H22.0795Z" fill="#3C4043"/>
<path d="M8.8929 4.9578C8.8929 4.67474 8.87012 4.39167 8.82457 4.11438H4.95828V5.71457H7.17328C7.08218 6.22872 6.78608 6.69086 6.35333 6.97971V8.01955H7.67436C8.44876 7.29744 8.8929 6.22872 8.8929 4.9578Z" fill="#4285F4"/>
<path d="M4.95846 9.02474C6.06311 9.02474 6.99694 8.65502 7.67454 8.01956L6.35351 6.97972C5.9834 7.23391 5.51079 7.37833 4.95846 7.37833C3.88797 7.37833 2.98261 6.64467 2.65805 5.6626H1.29716V6.7371C1.99184 8.14088 3.40967 9.02474 4.95846 9.02474Z" fill="#34A853"/>
<path d="M2.6582 5.66265C2.48735 5.14851 2.48735 4.58815 2.6582 4.06823V2.99951H1.2971C0.710516 4.17222 0.710516 5.55867 1.2971 6.73137L2.6582 5.66265Z" fill="#FBBC04"/>
<path d="M4.95846 2.35247C5.54495 2.34092 6.10867 2.56621 6.53003 2.97637L7.70301 1.78634C6.95709 1.08156 5.9777 0.694508 4.95846 0.706062C3.40967 0.706062 1.99184 1.5957 1.29716 2.99948L2.65805 4.07398C2.98261 3.08613 3.88797 2.35247 4.95846 2.35247Z" fill="#EA4335"/>
</svg>
