<svg width="40" height="40" viewBox="0 0 40 40" fill="none" xmlns="http://www.w3.org/2000/svg">
<path d="M24.5 11H15.5C13.0147 11 11 13.0147 11 15.5V24.5C11 26.9853 13.0147 29 15.5 29H24.5C26.9853 29 29 26.9853 29 24.5V15.5C29 13.0147 26.9853 11 24.5 11Z" stroke="white" stroke-width="2" stroke-linecap="round" stroke-linejoin="round"/>
<path d="M23.5991 19.4333C23.7101 20.1823 23.5822 20.9473 23.2334 21.6194C22.8847 22.2915 22.3329 22.8365 21.6565 23.177C20.9801 23.5174 20.2137 23.6359 19.4661 23.5156C18.7185 23.3953 18.0278 23.0423 17.4924 22.5069C16.957 21.9715 16.604 21.2809 16.4837 20.5333C16.3634 19.7857 16.4819 19.0192 16.8223 18.3428C17.1628 17.6664 17.7078 17.1146 18.3799 16.7659C19.0521 16.4171 19.817 16.2892 20.5661 16.4003C21.3301 16.5136 22.0374 16.8696 22.5836 17.4157C23.1297 17.9619 23.4858 18.6692 23.5991 19.4333Z" stroke="white" stroke-width="2" stroke-linecap="round" stroke-linejoin="round"/>
<path d="M24.9502 15.0498H24.9612" stroke="white" stroke-width="1.6" stroke-linecap="round" stroke-linejoin="round"/>
</svg>
