<svg width="59" height="11" viewBox="0 0 59 11" fill="none" xmlns="http://www.w3.org/2000/svg">
<path d="M0.230529 1.27273H2.16519L4.7561 7.59659H4.85837L7.44928 1.27273H9.38394V10H7.86689V4.00426H7.78593L5.374 9.97443H4.24047L1.82854 3.99148H1.74757V10H0.230529V1.27273ZM12.8729 10.1321C12.4581 10.1321 12.0845 10.0582 11.7521 9.91051C11.4226 9.75994 11.1612 9.53835 10.968 9.24574C10.7777 8.95312 10.6825 8.59233 10.6825 8.16335C10.6825 7.79403 10.7507 7.48864 10.8871 7.24716C11.0234 7.00568 11.2095 6.8125 11.4453 6.66761C11.6811 6.52273 11.9467 6.41335 12.2422 6.33949C12.5405 6.26278 12.8487 6.20739 13.1669 6.1733C13.5504 6.13352 13.8615 6.09801 14.1001 6.06676C14.3388 6.03267 14.5121 5.98153 14.62 5.91335C14.7308 5.84233 14.7862 5.73295 14.7862 5.58523V5.55966C14.7862 5.23864 14.6911 4.99006 14.5007 4.81392C14.3104 4.63778 14.0362 4.54972 13.6783 4.54972C13.3004 4.54972 13.0007 4.6321 12.7791 4.79688C12.5604 4.96165 12.4126 5.15625 12.3359 5.38068L10.8956 5.17614C11.0092 4.77841 11.1967 4.44602 11.4581 4.17898C11.7195 3.90909 12.0391 3.70739 12.4169 3.57386C12.7947 3.4375 13.2124 3.36932 13.6697 3.36932C13.9851 3.36932 14.299 3.40625 14.6115 3.48011C14.924 3.55398 15.2095 3.67614 15.468 3.84659C15.7266 4.0142 15.9339 4.2429 16.0902 4.53267C16.2493 4.82244 16.3288 5.18466 16.3288 5.61932V10H14.8459V9.10085H14.7947C14.701 9.28267 14.5689 9.45312 14.3984 9.61222C14.2308 9.76847 14.0192 9.89489 13.7635 9.99148C13.5107 10.0852 13.2138 10.1321 12.8729 10.1321ZM13.2734 8.99858C13.5831 8.99858 13.8516 8.9375 14.0788 8.81534C14.3061 8.69034 14.4808 8.52557 14.603 8.32102C14.728 8.11648 14.7905 7.89347 14.7905 7.65199V6.88068C14.7422 6.92045 14.6598 6.95739 14.5433 6.99148C14.4297 7.02557 14.3018 7.0554 14.1598 7.08097C14.0178 7.10653 13.8771 7.12926 13.7379 7.14915C13.5987 7.16903 13.478 7.18608 13.3757 7.20028C13.1456 7.23153 12.9396 7.28267 12.7578 7.35369C12.576 7.42472 12.4325 7.52415 12.3274 7.65199C12.2223 7.77699 12.1697 7.93892 12.1697 8.13778C12.1697 8.42188 12.2734 8.63636 12.4808 8.78125C12.6882 8.92614 12.9524 8.99858 13.2734 8.99858ZM20.2609 10.1151C19.7467 10.1151 19.2865 9.98295 18.8803 9.71875C18.474 9.45455 18.153 9.07102 17.9172 8.56818C17.6814 8.06534 17.5635 7.45455 17.5635 6.7358C17.5635 6.00852 17.6828 5.39489 17.9215 4.89489C18.1629 4.39205 18.4882 4.01278 18.8973 3.7571C19.3064 3.49858 19.7624 3.36932 20.2652 3.36932C20.6487 3.36932 20.9641 3.43466 21.2112 3.56534C21.4584 3.69318 21.6544 3.84801 21.7993 4.02983C21.9442 4.20881 22.0564 4.37784 22.1359 4.53693H22.1999V1.27273H23.7467V10H22.2297V8.96875H22.1359C22.0564 9.12784 21.9413 9.29687 21.7908 9.47585C21.6402 9.65199 21.4413 9.80256 21.1942 9.92756C20.947 10.0526 20.6359 10.1151 20.2609 10.1151ZM20.6913 8.84943C21.0181 8.84943 21.2965 8.76136 21.5266 8.58523C21.7567 8.40625 21.9314 8.15767 22.0507 7.83949C22.17 7.52131 22.2297 7.15057 22.2297 6.72727C22.2297 6.30398 22.17 5.93608 22.0507 5.62358C21.9342 5.31108 21.7609 5.06818 21.5308 4.89489C21.3036 4.72159 21.0237 4.63494 20.6913 4.63494C20.3476 4.63494 20.0607 4.72443 19.8306 4.90341C19.6004 5.08239 19.4271 5.32955 19.3107 5.64489C19.1942 5.96023 19.1359 6.32102 19.1359 6.72727C19.1359 7.13636 19.1942 7.50142 19.3107 7.82244C19.43 8.14062 19.6047 8.39205 19.8348 8.5767C20.0678 8.75852 20.3533 8.84943 20.6913 8.84943ZM28.2403 10.1278C27.584 10.1278 27.0173 9.99148 26.54 9.71875C26.0656 9.44318 25.7005 9.05398 25.4448 8.55114C25.1892 8.04545 25.0613 7.45028 25.0613 6.76562C25.0613 6.09233 25.1892 5.50142 25.4448 4.9929C25.7034 4.48153 26.0642 4.08381 26.5272 3.79972C26.9903 3.51278 27.5343 3.36932 28.1593 3.36932C28.5627 3.36932 28.9434 3.43466 29.3014 3.56534C29.6622 3.69318 29.9804 3.89205 30.2559 4.16193C30.5343 4.43182 30.7531 4.77557 30.9122 5.19318C31.0713 5.60795 31.1508 6.10227 31.1508 6.67614V7.14915H25.7857V6.10938H29.6721C29.6693 5.81392 29.6054 5.55114 29.4804 5.32102C29.3554 5.08807 29.1806 4.90483 28.9562 4.77131C28.7346 4.63778 28.4761 4.57102 28.1806 4.57102C27.8653 4.57102 27.5883 4.64773 27.3497 4.80114C27.111 4.9517 26.925 5.15057 26.7914 5.39773C26.6607 5.64205 26.594 5.91051 26.5911 6.20312V7.1108C26.5911 7.49148 26.6607 7.81818 26.8 8.09091C26.9392 8.3608 27.1338 8.56818 27.3838 8.71307C27.6338 8.85511 27.9264 8.92614 28.2616 8.92614C28.486 8.92614 28.6892 8.89489 28.871 8.83239C29.0528 8.76705 29.2105 8.67188 29.344 8.54688C29.4775 8.42188 29.5784 8.26705 29.6465 8.08239L31.0869 8.24432C30.996 8.625 30.8227 8.95739 30.567 9.24148C30.3142 9.52273 29.9903 9.74148 29.5954 9.89773C29.2005 10.0511 28.7488 10.1278 28.2403 10.1278ZM36.6873 10L34.8378 3.45455H36.4103L37.5608 8.05682H37.6205L38.7966 3.45455H40.352L41.5282 8.03125H41.5921L42.7256 3.45455H44.3023L42.4486 10H40.8421L39.6148 5.5767H39.5253L38.2981 10H36.6873ZM45.3314 10V3.45455H46.874V10H45.3314ZM46.1069 2.52557C45.8626 2.52557 45.6524 2.4446 45.4763 2.28267C45.3001 2.1179 45.2121 1.92045 45.2121 1.69034C45.2121 1.45739 45.3001 1.25994 45.4763 1.09801C45.6524 0.933238 45.8626 0.850852 46.1069 0.850852C46.3541 0.850852 46.5643 0.933238 46.7376 1.09801C46.9138 1.25994 47.0018 1.45739 47.0018 1.69034C47.0018 1.92045 46.9138 2.1179 46.7376 2.28267C46.5643 2.4446 46.3541 2.52557 46.1069 2.52557ZM51.6808 3.45455V4.64773H47.918V3.45455H51.6808ZM48.8469 1.88636H50.3896V8.03125C50.3896 8.23864 50.4208 8.39773 50.4833 8.50852C50.5487 8.61648 50.6339 8.69034 50.739 8.73011C50.8441 8.76989 50.9606 8.78977 51.0884 8.78977C51.185 8.78977 51.2731 8.78267 51.3526 8.76847C51.435 8.75426 51.4975 8.74148 51.5401 8.73011L51.8001 9.93608C51.7177 9.96449 51.5998 9.99574 51.4464 10.0298C51.2958 10.0639 51.1112 10.0838 50.8924 10.0895C50.506 10.1009 50.158 10.0426 49.8484 9.91477C49.5387 9.78409 49.293 9.58239 49.1112 9.30966C48.9322 9.03693 48.8441 8.69602 48.8469 8.28693V1.88636ZM54.6061 6.16477V10H53.0635V1.27273H54.572V4.56676H54.6487C54.8021 4.19744 55.0394 3.90625 55.3604 3.69318C55.6842 3.47727 56.0962 3.36932 56.5962 3.36932C57.0507 3.36932 57.447 3.46449 57.7851 3.65483C58.1232 3.84517 58.3845 4.12358 58.5692 4.49006C58.7567 4.85653 58.8504 5.30398 58.8504 5.83239V10H57.3078V6.07102C57.3078 5.63068 57.1942 5.28835 56.9669 5.04403C56.7425 4.79687 56.4271 4.6733 56.0209 4.6733C55.7482 4.6733 55.5038 4.73295 55.2879 4.85227C55.0749 4.96875 54.9073 5.13778 54.7851 5.35938C54.6658 5.58097 54.6061 5.84943 54.6061 6.16477Z" fill="#9FA3A6"/>
</svg>
