<svg width="109" height="48" viewBox="0 0 109 48" fill="none" xmlns="http://www.w3.org/2000/svg">
<path d="M0 4C0 1.79086 1.79086 0 4 0H105C107.209 0 109 1.79086 109 4V44C109 46.2091 107.209 48 105 48H4C1.79086 48 0 46.2091 0 44V4Z" fill="white"/>
<path d="M37.0002 33V30.75C37.0002 29.5565 36.5261 28.4119 35.6822 27.568C34.8383 26.7241 33.6937 26.25 32.5002 26.25H23.5002C22.3068 26.25 21.1622 26.7241 20.3183 27.568C19.4743 28.4119 19.0002 29.5565 19.0002 30.75V33" stroke="#030303" stroke-width="2" stroke-linecap="round" stroke-linejoin="round"/>
<path d="M28.0002 21.75C29.8642 21.75 31.3752 20.239 31.3752 18.375C31.3752 16.511 29.8642 15 28.0002 15C26.1363 15 24.6252 16.511 24.6252 18.375C24.6252 20.239 26.1363 21.75 28.0002 21.75Z" stroke="#030303" stroke-width="2" stroke-linecap="round" stroke-linejoin="round"/>
<path d="M53.9206 21.7827C53.8865 21.4389 53.7402 21.1719 53.4817 20.9815C53.2232 20.7912 52.8723 20.696 52.4292 20.696C52.128 20.696 51.8738 20.7386 51.6664 20.8239C51.459 20.9062 51.2999 21.0213 51.1891 21.169C51.0811 21.3168 51.0272 21.4844 51.0272 21.6719C51.0215 21.8281 51.0542 21.9645 51.1252 22.081C51.199 22.1974 51.2999 22.2983 51.4277 22.3835C51.5556 22.4659 51.7033 22.5384 51.8709 22.6009C52.0385 22.6605 52.2175 22.7116 52.4078 22.7543L53.1919 22.9418C53.5726 23.027 53.9221 23.1406 54.2402 23.2827C54.5584 23.4247 54.834 23.5994 55.0669 23.8068C55.2999 24.0142 55.4803 24.2585 55.6081 24.5398C55.7388 24.821 55.8056 25.1435 55.8084 25.5071C55.8056 26.0412 55.6692 26.5043 55.3993 26.8963C55.1323 27.2855 54.7459 27.5881 54.2402 27.804C53.7374 28.017 53.1309 28.1236 52.4206 28.1236C51.7161 28.1236 51.1025 28.0156 50.5797 27.7997C50.0598 27.5838 49.6536 27.2642 49.361 26.8409C49.0712 26.4148 48.9192 25.8878 48.905 25.2599H50.6905C50.7104 25.5526 50.7942 25.7969 50.9419 25.9929C51.0925 26.1861 51.2928 26.3324 51.5428 26.4318C51.7956 26.5284 52.0811 26.5767 52.3993 26.5767C52.7118 26.5767 52.9831 26.5312 53.2132 26.4403C53.4462 26.3494 53.6266 26.223 53.7544 26.0611C53.8823 25.8991 53.9462 25.7131 53.9462 25.5028C53.9462 25.3068 53.888 25.142 53.7715 25.0085C53.6578 24.875 53.4902 24.7614 53.2686 24.6676C53.0499 24.5739 52.7814 24.4886 52.4632 24.4119L51.513 24.1733C50.7772 23.9943 50.1962 23.7145 49.7701 23.3338C49.3439 22.9531 49.1323 22.4403 49.1351 21.7955C49.1323 21.267 49.2729 20.8054 49.557 20.4105C49.8439 20.0156 50.2374 19.7074 50.7374 19.4858C51.2374 19.2642 51.8056 19.1534 52.4419 19.1534C53.0897 19.1534 53.655 19.2642 54.138 19.4858C54.6238 19.7074 55.0016 20.0156 55.2715 20.4105C55.5414 20.8054 55.6806 21.2628 55.6891 21.7827H53.9206ZM58.8947 19.2727V28H57.0495V19.2727H58.8947ZM66.1998 22.0938C66.1401 21.8864 66.0563 21.7031 65.9483 21.544C65.8404 21.3821 65.7083 21.2457 65.552 21.1349C65.3986 21.0213 65.2225 20.9347 65.0236 20.875C64.8276 20.8153 64.6103 20.7855 64.3716 20.7855C63.9256 20.7855 63.5336 20.8963 63.1955 21.1179C62.8603 21.3395 62.5989 21.6619 62.4114 22.0852C62.2239 22.5057 62.1301 23.0199 62.1301 23.6278C62.1301 24.2358 62.2225 24.7528 62.4071 25.179C62.5918 25.6051 62.8532 25.9304 63.1912 26.1548C63.5293 26.3764 63.9284 26.4872 64.3887 26.4872C64.8063 26.4872 65.1628 26.4134 65.4583 26.2656C65.7566 26.1151 65.9838 25.9034 66.1401 25.6307C66.2992 25.358 66.3787 25.0355 66.3787 24.6634L66.7537 24.7188H64.5037V23.3295H68.1557V24.429C68.1557 25.196 67.9938 25.8551 67.6699 26.4062C67.3461 26.9545 66.9 27.3778 66.3319 27.6761C65.7637 27.9716 65.1131 28.1193 64.3801 28.1193C63.562 28.1193 62.8432 27.9389 62.2239 27.5781C61.6046 27.2145 61.1216 26.6989 60.775 26.0312C60.4313 25.3608 60.2594 24.5653 60.2594 23.6449C60.2594 22.9375 60.3617 22.3068 60.5662 21.7528C60.7736 21.196 61.0634 20.7244 61.4355 20.3381C61.8077 19.9517 62.2409 19.6577 62.7353 19.456C63.2296 19.2543 63.7651 19.1534 64.3418 19.1534C64.8361 19.1534 65.2963 19.2259 65.7225 19.3707C66.1486 19.5128 66.5265 19.7145 66.856 19.9759C67.1884 20.2372 67.4597 20.5483 67.6699 20.9091C67.8801 21.267 68.0151 21.6619 68.0748 22.0938H66.1998ZM76.8414 19.2727V28H75.2477L71.4508 22.5071H71.3869V28H69.5417V19.2727H71.161L74.9281 24.7614H75.0048V19.2727H76.8414ZM82.9885 19.2727V28H81.1433V19.2727H82.9885ZM91.8063 19.2727V28H90.2125L86.4157 22.5071H86.3517V28H84.5066V19.2727H86.1259L89.8929 24.7614H89.9696V19.2727H91.8063Z" fill="#030303"/>
</svg>
