<svg width="40" height="40" viewBox="0 0 40 40" fill="none" xmlns="http://www.w3.org/2000/svg">
<path d="M29 12.5084C28.2165 13.0731 27.349 13.5049 26.4309 13.7874C25.9382 13.2085 25.2833 12.7982 24.5548 12.612C23.8264 12.4258 23.0596 12.4726 22.3581 12.7462C21.6565 13.0198 21.0542 13.5069 20.6324 14.1416C20.2107 14.7764 19.9899 15.5281 20 16.2953V17.1312C18.5622 17.1693 17.1374 16.8435 15.8526 16.1828C14.5679 15.5221 13.463 14.547 12.6364 13.3444C12.6364 13.3444 9.36364 20.8679 16.7273 24.2117C15.0422 25.3803 13.0349 25.9663 11 25.8836C18.3636 30.0633 27.3636 25.8836 27.3636 16.2702C27.3629 16.0373 27.341 15.805 27.2982 15.5763C28.1332 14.735 28.7225 13.6726 29 12.5084V12.5084Z" stroke="white" stroke-width="2" stroke-linecap="round" stroke-linejoin="round"/>
</svg>
