<svg width="24" height="20" viewBox="0 0 24 20" fill="none" xmlns="http://www.w3.org/2000/svg">
<path d="M21.8011 7.47998e-05H4.20342C3.56664 0.00585704 2.97881 0.340463 2.65189 0.883239C2.32497 1.42602 2.30612 2.09868 2.60213 2.65868L4.36337 5.98924H1.17181C0.764065 5.98187 0.382842 6.18937 0.169699 6.53469C-0.0434439 6.88001 -0.0566735 7.31157 0.134923 7.66913L5.79736 18.2962C6.00055 18.6779 6.39958 18.9166 6.83425 18.9166C7.26892 18.9166 7.66794 18.6779 7.87113 18.2962L9.40808 15.4167L11.3385 19.0431C11.6523 19.6318 12.2681 20 12.9388 20C13.6096 20 14.2253 19.6318 14.5392 19.0431L23.3638 2.56373C23.656 2.02131 23.6384 1.36605 23.3177 0.83981C22.9969 0.313569 22.4204 -0.00561433 21.8011 7.47998e-05ZM13.938 6.96248L10.0773 14.1531C9.94463 14.4015 9.68472 14.5568 9.40165 14.5568C9.11858 14.5568 8.85866 14.4015 8.72602 14.1531L4.9149 7.03187C4.79732 6.81271 4.80418 6.54834 4.93299 6.3355C5.06179 6.12266 5.29363 5.99259 5.54365 5.99289H13.3424C13.5774 5.9893 13.7967 6.1094 13.9191 6.30865C14.0415 6.5079 14.0487 6.75658 13.938 6.96248Z" fill="white"/>
</svg>
