<svg width="123" height="48" viewBox="0 0 123 48" fill="none" xmlns="http://www.w3.org/2000/svg">
<path d="M0 4C0 1.79086 1.79086 0 4 0H119C121.209 0 123 1.79086 123 4V44C123 46.2091 121.209 48 119 48H4C1.79086 48 0 46.2091 0 44V4Z" fill="white"/>
<path d="M36.2464 17.275C35.7699 16.7915 35.2042 16.408 34.5815 16.1464C33.9589 15.8847 33.2915 15.75 32.6175 15.75C31.9435 15.75 31.2761 15.8847 30.6534 16.1464C30.0308 16.408 29.4651 16.7915 28.9886 17.275L27.9998 18.2779L27.0109 17.275C26.0485 16.2989 24.7431 15.7505 23.382 15.7505C22.0209 15.7505 20.7156 16.2989 19.7531 17.275C18.7907 18.2512 18.25 19.5751 18.25 20.9555C18.25 22.336 18.7907 23.6599 19.7531 24.6361L20.742 25.639L27.9998 33L35.2575 25.639L36.2464 24.6361C36.7231 24.1528 37.1012 23.579 37.3592 22.9475C37.6172 22.316 37.75 21.6391 37.75 20.9555C37.75 20.272 37.6172 19.5951 37.3592 18.9636C37.1012 18.332 36.7231 17.7583 36.2464 17.275V17.275Z" stroke="#030303" stroke-width="2" stroke-linecap="round" stroke-linejoin="round"/>
<path d="M50.891 28L48.3938 19.2727H50.4094L51.854 25.3366H51.9265L53.5202 19.2727H55.2461L56.8356 25.3494H56.9123L58.3569 19.2727H60.3725L57.8754 28H56.0771L54.4151 22.294H54.3469L52.6893 28H50.891ZM63.2053 19.2727V28H61.3601V19.2727H63.2053ZM69.4577 21.7827C69.4237 21.4389 69.2773 21.1719 69.0188 20.9815C68.7603 20.7912 68.4094 20.696 67.9663 20.696C67.6651 20.696 67.4109 20.7386 67.2035 20.8239C66.9961 20.9062 66.837 21.0213 66.7262 21.169C66.6183 21.3168 66.5643 21.4844 66.5643 21.6719C66.5586 21.8281 66.5913 21.9645 66.6623 22.081C66.7362 22.1974 66.837 22.2983 66.9648 22.3835C67.0927 22.4659 67.2404 22.5384 67.408 22.6009C67.5756 22.6605 67.7546 22.7116 67.945 22.7543L68.729 22.9418C69.1097 23.027 69.4592 23.1406 69.7773 23.2827C70.0955 23.4247 70.3711 23.5994 70.604 23.8068C70.837 24.0142 71.0174 24.2585 71.1452 24.5398C71.2759 24.821 71.3427 25.1435 71.3455 25.5071C71.3427 26.0412 71.2063 26.5043 70.9364 26.8963C70.6694 27.2855 70.283 27.5881 69.7773 27.804C69.2745 28.017 68.668 28.1236 67.9577 28.1236C67.2532 28.1236 66.6396 28.0156 66.1168 27.7997C65.5969 27.5838 65.1907 27.2642 64.8981 26.8409C64.6083 26.4148 64.4563 25.8878 64.4421 25.2599H66.2276C66.2475 25.5526 66.3313 25.7969 66.479 25.9929C66.6296 26.1861 66.8299 26.3324 67.0799 26.4318C67.3327 26.5284 67.6183 26.5767 67.9364 26.5767C68.2489 26.5767 68.5202 26.5312 68.7504 26.4403C68.9833 26.3494 69.1637 26.223 69.2915 26.0611C69.4194 25.8991 69.4833 25.7131 69.4833 25.5028C69.4833 25.3068 69.4251 25.142 69.3086 25.0085C69.195 24.875 69.0273 24.7614 68.8058 24.6676C68.587 24.5739 68.3185 24.4886 68.0004 24.4119L67.0501 24.1733C66.3143 23.9943 65.7333 23.7145 65.3072 23.3338C64.881 22.9531 64.6694 22.4403 64.6722 21.7955C64.6694 21.267 64.81 20.8054 65.0941 20.4105C65.381 20.0156 65.7745 19.7074 66.2745 19.4858C66.7745 19.2642 67.3427 19.1534 67.979 19.1534C68.6268 19.1534 69.1921 19.2642 69.6751 19.4858C70.1609 19.7074 70.5387 20.0156 70.8086 20.4105C71.0785 20.8054 71.2177 21.2628 71.2262 21.7827H69.4577ZM72.5866 28V19.2727H74.4318V22.8736H78.1776V19.2727H80.0185V28H78.1776V24.3949H74.4318V28H72.5866ZM81.5398 28V19.2727H83.3849V26.4787H87.1264V28H81.5398ZM90.1935 19.2727V28H88.3484V19.2727H90.1935ZM96.446 21.7827C96.4119 21.4389 96.2656 21.1719 96.0071 20.9815C95.7486 20.7912 95.3977 20.696 94.9545 20.696C94.6534 20.696 94.3991 20.7386 94.1918 20.8239C93.9844 20.9062 93.8253 21.0213 93.7145 21.169C93.6065 21.3168 93.5526 21.4844 93.5526 21.6719C93.5469 21.8281 93.5795 21.9645 93.6506 22.081C93.7244 22.1974 93.8253 22.2983 93.9531 22.3835C94.081 22.4659 94.2287 22.5384 94.3963 22.6009C94.5639 22.6605 94.7429 22.7116 94.9332 22.7543L95.7173 22.9418C96.098 23.027 96.4474 23.1406 96.7656 23.2827C97.0838 23.4247 97.3594 23.5994 97.5923 23.8068C97.8253 24.0142 98.0057 24.2585 98.1335 24.5398C98.2642 24.821 98.331 25.1435 98.3338 25.5071C98.331 26.0412 98.1946 26.5043 97.9247 26.8963C97.6577 27.2855 97.2713 27.5881 96.7656 27.804C96.2628 28.017 95.6563 28.1236 94.946 28.1236C94.2415 28.1236 93.6278 28.0156 93.1051 27.7997C92.5852 27.5838 92.179 27.2642 91.8864 26.8409C91.5966 26.4148 91.4446 25.8878 91.4304 25.2599H93.2159C93.2358 25.5526 93.3196 25.7969 93.4673 25.9929C93.6179 26.1861 93.8182 26.3324 94.0682 26.4318C94.321 26.5284 94.6065 26.5767 94.9247 26.5767C95.2372 26.5767 95.5085 26.5312 95.7386 26.4403C95.9716 26.3494 96.152 26.223 96.2798 26.0611C96.4077 25.8991 96.4716 25.7131 96.4716 25.5028C96.4716 25.3068 96.4134 25.142 96.2969 25.0085C96.1832 24.875 96.0156 24.7614 95.794 24.6676C95.5753 24.5739 95.3068 24.4886 94.9886 24.4119L94.0384 24.1733C93.3026 23.9943 92.7216 23.7145 92.2955 23.3338C91.8693 22.9531 91.6577 22.4403 91.6605 21.7955C91.6577 21.267 91.7983 20.8054 92.0824 20.4105C92.3693 20.0156 92.7628 19.7074 93.2628 19.4858C93.7628 19.2642 94.331 19.1534 94.9673 19.1534C95.6151 19.1534 96.1804 19.2642 96.6634 19.4858C97.1491 19.7074 97.527 20.0156 97.7969 20.4105C98.0668 20.8054 98.206 21.2628 98.2145 21.7827H96.446ZM99.2425 20.794V19.2727H106.41V20.794H103.738V28H101.914V20.794H99.2425Z" fill="#030303"/>
</svg>
