<svg width="33" height="16" viewBox="0 0 33 16" fill="none" xmlns="http://www.w3.org/2000/svg">
<path d="M0 4C0 1.79086 1.79086 0 4 0H29C31.2091 0 33 1.79086 33 4V12C33 14.2091 31.2091 16 29 16H4C1.79086 16 0 14.2091 0 12V4Z" fill="#E63737"/>
<path d="M8.80256 6.91619V8.35653H4.82244V6.91619H8.80256ZM13.7543 12.1918C13.0213 12.1889 12.3906 12.0085 11.8622 11.6506C11.3366 11.2926 10.9318 10.7741 10.6477 10.0952C10.3665 9.41619 10.2273 8.59943 10.2301 7.64489C10.2301 6.69318 10.3707 5.8821 10.652 5.21165C10.9361 4.54119 11.3409 4.03125 11.8665 3.68182C12.3949 3.32955 13.0241 3.15341 13.7543 3.15341C14.4844 3.15341 15.1122 3.32955 15.6378 3.68182C16.1662 4.03409 16.5724 4.54545 16.8565 5.21591C17.1406 5.88352 17.2813 6.69318 17.2784 7.64489C17.2784 8.60227 17.1364 9.42045 16.8523 10.0994C16.571 10.7784 16.1676 11.2969 15.642 11.6548C15.1165 12.0128 14.4872 12.1918 13.7543 12.1918ZM13.7543 10.6619C14.2543 10.6619 14.6534 10.4105 14.9517 9.90767C15.25 9.40483 15.3977 8.65057 15.3949 7.64489C15.3949 6.98295 15.3267 6.43182 15.1903 5.99148C15.0568 5.55114 14.8665 5.22017 14.6193 4.99858C14.375 4.77699 14.0866 4.66619 13.7543 4.66619C13.2571 4.66619 12.8594 4.91477 12.5611 5.41193C12.2628 5.90909 12.1122 6.65341 12.1094 7.64489C12.1094 8.31534 12.1761 8.875 12.3097 9.32386C12.446 9.76989 12.6378 10.1051 12.8849 10.3295C13.1321 10.5511 13.4219 10.6619 13.7543 10.6619ZM23.3711 10.3636V9.90341C23.3711 9.55398 23.445 9.23295 23.5927 8.94034C23.7433 8.64489 23.9606 8.40909 24.2447 8.23295C24.5316 8.05398 24.881 7.96449 25.293 7.96449C25.7106 7.96449 26.0614 8.05256 26.3455 8.22869C26.6325 8.40483 26.8484 8.64062 26.9933 8.93608C27.141 9.22869 27.2148 9.55114 27.2148 9.90341V10.3636C27.2148 10.7131 27.141 11.0355 26.9933 11.331C26.8455 11.6236 26.6282 11.858 26.3413 12.0341C26.0543 12.2131 25.7049 12.3026 25.293 12.3026C24.8754 12.3026 24.5245 12.2131 24.2404 12.0341C23.9563 11.858 23.7404 11.6236 23.5927 11.331C23.445 11.0355 23.3711 10.7131 23.3711 10.3636ZM24.6112 9.90341V10.3636C24.6112 10.5653 24.6594 10.7557 24.756 10.9347C24.8555 11.1136 25.0344 11.2031 25.293 11.2031C25.5515 11.2031 25.7276 11.1151 25.8214 10.9389C25.918 10.7628 25.9663 10.571 25.9663 10.3636V9.90341C25.9663 9.69602 25.9208 9.50284 25.8299 9.32386C25.739 9.14489 25.56 9.0554 25.293 9.0554C25.0373 9.0554 24.8597 9.14489 24.7603 9.32386C24.6609 9.50284 24.6112 9.69602 24.6112 9.90341ZM18.8924 5.36932V4.90909C18.8924 4.55682 18.9677 4.23437 19.1183 3.94176C19.2688 3.64631 19.4862 3.41051 19.7702 3.23438C20.0572 3.05824 20.4038 2.97017 20.81 2.97017C21.2305 2.97017 21.5827 3.05824 21.8668 3.23438C22.1509 3.41051 22.3668 3.64631 22.5146 3.94176C22.6623 4.23437 22.7362 4.55682 22.7362 4.90909V5.36932C22.7362 5.72159 22.6609 6.04403 22.5103 6.33665C22.3626 6.62926 22.1452 6.86364 21.8583 7.03977C21.5742 7.21307 21.2248 7.29972 20.81 7.29972C20.3952 7.29972 20.0444 7.21165 19.7575 7.03551C19.4734 6.85653 19.2575 6.62216 19.1097 6.33239C18.9648 6.03977 18.8924 5.71875 18.8924 5.36932ZM20.141 4.90909V5.36932C20.141 5.5767 20.1893 5.76847 20.2859 5.9446C20.3853 6.12074 20.56 6.20881 20.81 6.20881C21.0714 6.20881 21.2489 6.12074 21.3427 5.9446C21.4393 5.76847 21.4876 5.5767 21.4876 5.36932V4.90909C21.4876 4.7017 21.4421 4.50852 21.3512 4.32955C21.2603 4.15057 21.0799 4.06108 20.81 4.06108C20.5572 4.06108 20.3825 4.15199 20.2859 4.33381C20.1893 4.51562 20.141 4.70739 20.141 4.90909ZM19.4549 12L25.4549 3.27273H26.5714L20.5714 12H19.4549Z" fill="white"/>
</svg>
